<?xml version="1.0" standalone="no"?>
<!DOCTYPE svg PUBLIC "-//W3C//DTD SVG 20010904//EN"
 "http://www.w3.org/TR/2001/REC-SVG-20010904/DTD/svg10.dtd">
<svg version="1.0" xmlns="http://www.w3.org/2000/svg"
 width="50px" height="50px" viewBox="0 0 617.000000 650.000000"
 preserveAspectRatio="xMidYMid meet">

<g transform="translate(0.000000,650.000000) scale(0.100000,-0.100000)"
fill="#000000" stroke="none">
<path d="M3040 6315 c0 -38 -22 -74 -79 -130 -28 -27 -56 -64 -62 -82 -12 -38
-18 -40 -51 -14 -16 13 -33 18 -47 14 -21 -5 -22 -10 -17 -45 5 -31 2 -45 -14
-65 -11 -14 -20 -34 -20 -44 0 -15 -10 -19 -57 -21 -55 -3 -58 -4 -61 -31 -4
-33 -22 -43 -52 -27 -38 20 -97 2 -151 -45 -44 -40 -98 -65 -141 -65 -20 0
-38 -29 -38 -59 0 -11 18 -38 40 -60 47 -46 50 -69 14 -104 -35 -36 -104 -67
-256 -117 -94 -30 -142 -52 -186 -84 -56 -41 -194 -185 -200 -209 -2 -7 6 -1
18 13 100 118 179 179 291 225 52 21 139 40 139 30 0 -2 -33 -22 -72 -45 -220
-130 -348 -241 -398 -346 -17 -34 -37 -65 -46 -68 -22 -8 -31 1 -16 16 13 13
16 48 5 48 -5 0 -16 -20 -26 -44 -10 -23 -32 -56 -48 -72 -30 -28 -32 -28 -43
-10 -54 91 -132 155 -219 181 -77 23 -268 20 -348 -5 -123 -38 -225 -114 -304
-225 -92 -128 -135 -259 -135 -411 0 -121 24 -198 90 -288 28 -38 48 -71 46
-74 -3 -2 -27 9 -53 26 -26 17 -64 33 -84 37 -48 9 -139 -10 -181 -38 -44 -29
-79 -99 -71 -141 12 -67 94 -135 164 -136 31 0 79 35 79 57 0 14 3 13 21 -3
36 -33 77 -128 129 -299 27 -90 61 -192 75 -226 29 -73 30 -79 10 -79 -33 0
-84 -61 -111 -133 -15 -40 -40 -87 -56 -105 -41 -48 -35 -108 20 -196 21 -34
22 -40 9 -48 -9 -4 -30 -20 -46 -34 -26 -21 -31 -33 -31 -67 0 -81 52 -144
127 -154 39 -5 40 -6 40 -47 0 -22 9 -59 21 -82 20 -40 83 -104 102 -104 5 0
7 -13 4 -30 -4 -16 -4 -40 0 -53 7 -31 70 -92 109 -108 18 -7 33 -13 35 -15 2
-1 -6 -20 -17 -43 -27 -52 -26 -87 1 -128 33 -47 75 -67 129 -61 24 3 51 9 60
13 13 5 23 -5 40 -37 51 -91 213 -134 341 -91 l57 20 -5 -81 c-3 -45 -7 -86
-9 -92 -2 -6 -30 -26 -62 -44 -32 -18 -82 -50 -110 -71 -66 -50 -69 -79 -18
-162 19 -31 51 -83 70 -114 34 -56 42 -75 65 -170 6 -24 21 -55 35 -70 21 -25
29 -28 87 -27 l63 1 50 -85 c54 -92 162 -207 230 -248 96 -56 266 -104 367
-104 50 0 185 28 218 45 24 13 26 12 52 -46 31 -68 65 -89 143 -89 43 0 45 -1
45 -30 0 -28 2 -30 39 -30 30 0 49 -8 81 -35 26 -22 52 -35 70 -35 25 0 30 -5
36 -36 4 -24 27 -58 73 -108 36 -40 71 -81 78 -92 12 -21 15 -16 27 38 4 15
26 50 51 78 25 28 45 54 45 58 1 27 18 32 58 18 46 -17 58 -9 41 26 -16 37 25
97 67 98 34 0 54 16 54 42 0 16 6 17 53 12 70 -8 109 12 149 77 34 54 42 56
108 32 63 -22 244 -22 330 1 172 47 327 168 422 331 l46 79 67 1 c60 0 69 3
90 27 13 16 29 57 39 101 13 57 31 97 73 164 84 133 105 183 86 208 -15 20
-89 73 -155 111 -56 31 -68 43 -68 64 0 14 -3 55 -6 91 l-7 67 54 -19 c108
-37 238 -17 310 48 21 19 42 47 45 60 5 20 11 23 28 18 84 -29 156 -8 196 57
25 42 25 74 0 116 -26 42 -25 48 8 60 68 23 121 100 109 158 -3 19 2 28 22 38
57 30 99 98 108 177 5 46 7 49 36 49 16 0 44 9 63 20 32 20 74 90 74 124 0 28
-27 73 -61 99 l-32 25 31 49 c43 67 44 132 3 189 -15 21 -38 69 -50 106 -22
67 -56 109 -101 123 -27 9 -26 21 14 122 19 49 53 149 75 223 22 74 42 144 46
155 4 13 1 11 -9 -6 -8 -14 -35 -90 -60 -170 -68 -222 -99 -294 -125 -293 -11
0 -41 1 -64 2 l-44 2 4 98 c5 96 4 98 -29 151 -46 76 -99 104 -190 99 -56 -3
-75 -9 -112 -35 l-45 -32 -6 30 c-4 17 -4 33 -1 36 3 3 -1 15 -9 27 -8 11 -15
34 -15 50 0 16 -8 54 -17 84 -16 51 -16 55 0 67 9 7 17 17 17 22 0 17 39 38
122 67 70 24 82 25 125 15 63 -15 68 -21 49 -57 -19 -36 -23 -130 -7 -159 6
-12 38 -43 71 -68 85 -66 113 -105 118 -171 2 -30 9 -57 14 -60 6 -4 7 13 3
42 -6 49 -31 104 -95 218 l-33 59 19 36 c22 41 45 49 79 27 28 -19 52 -86 65
-186 9 -73 9 -72 5 35 -2 61 -11 132 -19 159 -9 27 -16 71 -16 98 0 47 0 48
32 48 17 0 40 8 51 18 19 16 19 16 13 -5 -4 -13 -3 -23 2 -23 5 0 13 -21 19
-47 9 -43 10 -44 12 -15 2 61 39 120 95 153 44 26 59 30 111 27 96 -6 185 -78
185 -151 0 -37 -61 -87 -105 -87 -25 0 -35 4 -35 16 0 18 18 53 38 73 26 27
-8 111 -46 111 -9 0 -6 -7 9 -20 l24 -19 -47 -1 c-26 0 -50 -4 -53 -10 -4 -6
1 -7 12 -4 13 5 11 -1 -8 -19 -15 -14 -30 -42 -33 -62 -4 -20 -20 -58 -37 -84
-16 -27 -29 -52 -29 -57 0 -4 13 13 29 38 36 56 48 64 56 38 4 -12 22 -28 40
-37 52 -25 100 -10 157 46 44 44 48 52 48 96 0 45 -4 52 -49 96 -40 38 -60 49
-105 59 -67 14 -102 7 -175 -31 -30 -15 -58 -26 -63 -23 -5 3 14 31 42 62 62
69 88 137 96 245 22 310 -167 594 -461 692 -71 24 -92 27 -185 23 -95 -3 -112
-6 -171 -35 -62 -31 -140 -101 -181 -163 l-16 -25 -32 30 c-17 17 -39 42 -48
58 -18 30 -38 38 -22 8 13 -26 13 -31 -5 -31 -21 0 -77 100 -70 128 3 12 2 22
-3 22 -5 0 -51 37 -103 82 -97 84 -183 144 -279 194 l-55 29 39 3 c57 5 185
-50 247 -106 28 -25 69 -70 91 -100 22 -29 42 -51 45 -49 2 3 -24 40 -58 82
-97 120 -155 157 -371 230 -148 51 -200 80 -224 126 l-16 32 41 37 c80 73 44
140 -75 140 -61 0 -64 1 -79 30 -26 50 -69 70 -153 70 -71 0 -72 0 -66 24 3
13 1 34 -6 45 -8 17 -15 19 -29 11 -24 -13 -121 9 -121 28 0 29 -48 62 -90 62
-37 0 -40 2 -40 27 0 40 -43 104 -104 157 -32 27 -60 61 -67 81 -15 41 -39 47
-39 10z m115 -148 c83 -83 90 -112 40 -172 -41 -51 -50 -73 -69 -173 -10 -51
-11 -72 -3 -69 6 2 17 32 24 67 17 85 49 132 99 148 50 15 65 2 42 -36 -70
-112 -84 -172 -46 -196 23 -14 26 -9 39 60 20 108 63 148 148 137 37 -5 41 -8
41 -34 0 -16 5 -29 12 -29 18 0 0 -14 -35 -27 -18 -6 -24 -12 -15 -12 15 -1
15 -5 -5 -36 -12 -20 -38 -53 -58 -75 -42 -45 -53 -78 -39 -114 19 -51 52 -29
71 49 30 123 99 185 206 185 49 0 90 -17 66 -27 -18 -7 -16 -23 2 -23 28 0 65
-47 65 -82 0 -52 -22 -74 -78 -82 -93 -12 -144 -66 -243 -256 -54 -104 -114
-166 -202 -210 -36 -18 -64 -36 -61 -41 9 -15 -49 -31 -86 -24 -105 20 -196
109 -357 350 -72 108 -134 172 -177 183 -38 10 -123 -14 -129 -37 -3 -9 -5 19
-6 61 -1 75 0 78 32 107 28 27 29 31 12 31 -38 1 48 39 90 40 36 0 45 -6 98
-62 33 -35 57 -55 53 -44 -17 49 -27 106 -23 127 3 19 5 17 6 -8 0 -18 5 -33
9 -33 5 0 18 -18 31 -40 26 -47 35 -51 26 -10 -3 16 -3 50 0 75 6 36 10 43 20
35 8 -6 17 -30 20 -53 11 -61 35 -116 56 -128 23 -12 59 4 59 26 0 8 -27 59
-60 112 -33 54 -60 104 -60 112 0 16 41 81 51 81 4 0 9 -9 12 -20 6 -23 37
-27 37 -5 0 25 17 17 49 -24 35 -44 61 -100 61 -130 0 -11 5 -23 12 -27 23
-15 -3 80 -44 155 -47 87 -47 111 2 161 17 17 30 36 31 43 0 7 4 2 10 -11 10
-25 28 -21 30 6 3 43 18 -87 25 -216 4 -78 11 -145 16 -148 4 -3 8 92 8 210 0
150 3 216 11 216 6 0 39 -28 74 -63z m-585 -607 c11 -11 20 -29 20 -39 0 -30
-54 -78 -113 -99 -28 -11 -59 -22 -67 -25 -28 -10 54 -7 93 4 21 5 53 23 71
40 37 32 48 36 40 15 -3 -8 -37 -33 -76 -56 -38 -23 -68 -43 -66 -45 2 -2 23
1 47 7 29 7 60 27 89 55 25 23 47 43 48 43 2 0 2 -9 1 -20 -1 -11 -6 -20 -13
-20 -6 0 -19 -9 -29 -20 -22 -25 -9 -26 18 -2 19 16 19 16 12 -8 -20 -66 -90
-96 -203 -86 -42 3 -88 9 -102 13 -17 4 -22 2 -15 -5 17 -17 217 -43 255 -32
65 19 130 -38 130 -114 0 -40 -41 -76 -85 -76 -29 0 -44 8 -76 39 -36 37 -203
130 -214 119 -3 -2 24 -23 60 -46 43 -27 69 -52 79 -74 8 -18 15 -27 15 -20 2
23 30 12 46 -18 27 -52 20 -67 -37 -88 l-53 -20 -16 59 c-28 104 -103 171
-208 188 -109 17 -216 -21 -320 -114 -53 -47 -67 -55 -102 -55 -22 0 -58 -9
-79 -20 -22 -11 -40 -16 -40 -10 0 16 140 159 188 192 60 41 142 81 279 133
136 53 205 94 242 145 23 32 29 35 52 26 35 -12 57 -3 69 29 11 30 33 32 60 5z
m1250 -60 c45 -64 89 -91 215 -134 142 -49 251 -106 343 -180 71 -57 158 -153
148 -163 -3 -3 -20 4 -39 16 -22 13 -51 21 -79 21 -41 0 -52 6 -107 55 -134
119 -270 149 -399 88 -54 -26 -111 -90 -125 -141 -10 -39 -14 -43 -37 -39 -46
10 -80 26 -80 40 0 24 31 59 48 52 9 -3 13 -3 10 0 -9 10 90 95 124 107 15 5
28 14 28 19 0 21 -177 -65 -202 -99 -20 -27 -43 -42 -78 -52 -27 -8 -30 -7
-20 5 9 11 5 14 -26 17 -34 3 -39 7 -45 36 -4 17 -4 32 0 32 3 0 7 12 8 26 0
15 12 38 26 52 22 22 32 24 84 21 99 -6 197 -2 223 9 20 9 5 11 -75 11 -84 1
-108 5 -145 24 -25 12 -50 33 -56 47 -15 32 -27 130 -17 130 12 0 33 -74 22
-78 -12 -5 8 -42 23 -42 9 0 9 3 0 12 -23 23 -12 28 17 7 33 -24 131 -60 143
-53 14 9 0 21 -32 28 -48 9 -153 87 -138 101 3 3 21 -10 41 -28 40 -38 100
-57 174 -56 l48 1 -61 13 c-97 21 -142 50 -161 105 -14 37 -5 60 22 60 36 0
55 -10 55 -31 0 -12 7 -19 18 -19 24 0 42 19 42 45 1 20 1 20 15 0 7 -11 28
-40 45 -65z m270 -112 c0 -11 -48 -10 -54 1 -3 4 8 8 24 7 17 -1 30 -4 30 -8z
m-1933 -4 c-3 -3 -12 -4 -19 -1 -8 3 -5 6 6 6 11 1 17 -2 13 -5z m181 -321
c24 -14 29 -23 28 -52 -1 -33 -4 -36 -36 -41 -28 -4 -38 -12 -53 -42 -13 -26
-28 -40 -53 -48 -20 -7 -38 -10 -41 -6 -10 10 -16 94 -9 131 4 21 19 49 32 62
21 21 32 24 64 19 21 -3 52 -14 68 -23z m1659 3 c24 -21 28 -32 31 -95 2 -39
1 -71 -3 -71 -4 0 -47 21 -96 48 -55 29 -89 53 -89 63 0 20 41 65 66 72 41 10
64 6 91 -17z m-602 4 c213 -25 370 -72 569 -174 311 -158 536 -354 717 -625
233 -347 331 -745 289 -1176 -14 -139 -21 -156 -74 -178 -41 -17 -47 -17 -75
-3 -16 9 -34 16 -39 16 -14 0 -22 -54 -9 -62 6 -4 9 -9 7 -11 -3 -1 -31 -25
-62 -51 -32 -27 -58 -46 -58 -44 0 3 9 31 21 64 182 526 38 1140 -368 1565
-232 243 -525 404 -856 471 -161 33 -451 33 -615 0 -288 -58 -530 -173 -750
-356 -272 -226 -467 -552 -544 -910 -32 -149 -32 -446 1 -595 21 -98 65 -232
105 -326 16 -38 14 -36 -53 35 -38 41 -70 81 -71 89 0 7 -6 11 -13 8 -7 -3
-21 2 -32 9 -19 14 -19 15 3 30 29 20 28 50 -2 69 -28 19 -52 11 -70 -22 l-13
-25 -26 24 c-46 39 -61 135 -61 388 -1 186 2 230 22 329 115 568 469 1028 994
1292 159 80 313 131 493 163 96 17 439 21 570 6z m-2185 -36 c70 -21 144 -69
199 -129 l44 -48 -6 -88 c-4 -57 -2 -91 5 -95 6 -4 5 -10 -3 -15 -20 -13 -31
-11 -23 4 5 8 2 7 -9 -2 -12 -10 -31 -12 -65 -8 -43 6 -45 5 -28 -8 23 -18 36
-18 72 -5 24 9 25 9 14 -5 -20 -24 -92 -20 -117 8 -28 31 -34 53 -23 82 14 36
25 31 25 -11 0 -36 1 -36 46 -40 33 -3 50 0 59 11 11 13 8 15 -20 15 -32 0
-33 0 -15 20 24 26 10 79 -24 91 -19 8 -29 3 -58 -28 l-34 -38 -24 27 c-27 31
-82 47 -163 48 -102 0 -213 -83 -274 -208 -30 -61 -33 -74 -33 -164 0 -69 -4
-99 -12 -103 -13 -4 -19 47 -16 140 1 34 0 36 -7 15 -4 -14 -8 -60 -9 -102 -1
-62 -4 -78 -16 -78 -8 0 -15 -5 -15 -11 0 -25 -26 1 -42 42 -11 28 -17 37 -18
24 -4 -40 -18 28 -18 85 -2 238 213 483 436 497 47 3 89 -2 140 -15 80 -22 96
-12 30 18 -80 37 -212 20 -335 -41 -73 -37 -169 -126 -207 -190 -47 -82 -95
-203 -97 -247 -2 -23 -8 -42 -13 -42 -7 0 -7 -3 0 -8 6 -4 15 -43 19 -87 12
-131 39 -171 111 -163 38 4 44 -4 44 -62 0 -47 -8 -53 -51 -39 -76 26 -146
122 -174 241 -82 346 217 727 571 728 45 0 104 -7 134 -16z m4035 1 c201 -51
366 -207 431 -407 23 -71 27 -101 28 -203 0 -136 -13 -189 -70 -266 -42 -57
-92 -83 -162 -83 -63 0 -72 9 -71 79 1 63 20 118 43 121 14 2 16 -3 11 -26 -9
-39 23 -70 70 -70 64 0 93 48 106 175 4 44 12 101 17 128 10 51 7 60 -8 25 -8
-21 -9 -20 -9 10 -1 18 -7 41 -13 52 -11 17 -10 22 1 29 17 11 6 48 -17 55
-10 4 -39 40 -66 81 -87 136 -259 245 -384 245 -56 0 -164 -22 -155 -31 4 -4
28 -3 53 2 61 14 163 5 230 -20 112 -43 207 -138 277 -280 36 -70 37 -78 41
-195 4 -129 -5 -197 -27 -204 -10 -3 -11 0 -5 9 10 16 23 119 15 119 -4 0 -16
-18 -29 -41 l-23 -40 -20 25 c-11 14 -29 26 -40 26 -18 0 -19 8 -19 108 0 133
-19 181 -107 263 -112 107 -193 125 -311 69 l-64 -30 -27 22 -27 23 40 31 c23
17 51 36 64 43 33 18 27 32 -9 19 -18 -6 -52 -30 -77 -54 -24 -24 -54 -44 -66
-46 -14 -2 -30 -21 -48 -56 l-27 -53 24 -9 c31 -12 31 -18 3 -30 -19 -7 -16
-9 19 -9 53 -1 73 18 73 72 0 49 18 39 27 -16 5 -30 1 -40 -23 -62 -24 -22
-36 -26 -68 -22 -22 3 -49 16 -65 31 -26 25 -27 31 -26 114 1 48 3 93 4 100 2
21 83 102 128 129 103 60 239 78 358 48z m-3401 -77 c27 -38 19 -62 -35 -108
-59 -49 -89 -94 -89 -130 1 -23 3 -22 21 12 12 23 35 46 59 58 22 11 40 24 40
29 0 11 46 31 72 31 25 0 58 -27 58 -47 0 -7 6 -13 14 -13 17 0 28 -24 20 -45
-4 -8 -18 -18 -33 -21 -107 -21 -116 -29 -165 -130 -18 -38 -63 -104 -99 -147
-37 -42 -78 -98 -93 -122 l-26 -45 -38 30 c-68 54 -140 140 -141 168 -3 73 12
116 48 139 20 13 23 12 38 -14 15 -26 16 -26 9 -3 -17 62 -15 121 6 196 28
103 31 108 55 90 19 -14 19 -15 2 -50 -21 -44 -9 -47 22 -5 13 17 24 29 26 27
2 -2 -3 -30 -11 -63 -7 -33 -13 -82 -13 -110 l1 -50 10 65 c15 109 45 187 92
236 38 40 47 44 89 44 36 0 49 -5 61 -22z m2619 13 c92 -35 151 -204 131 -371
-4 -39 -3 -42 8 -25 17 27 15 156 -4 227 -18 63 -6 70 27 16 23 -40 32 -21 10
22 -18 35 -18 35 11 44 19 6 24 0 39 -41 22 -64 32 -202 15 -232 -6 -13 -9
-25 -6 -28 3 -3 10 6 15 21 6 14 14 26 19 26 16 0 43 -38 58 -77 24 -68 19
-87 -42 -152 -31 -34 -59 -61 -64 -61 -4 0 -36 35 -73 78 -131 154 -318 332
-367 347 -46 15 3 85 59 85 34 -1 159 -93 172 -127 5 -14 12 -23 16 -20 3 4
-2 27 -12 52 -12 34 -31 56 -71 86 -51 38 -53 41 -50 80 2 23 10 45 17 50 18
11 62 11 92 0z m-1003 -249 c576 -135 1009 -573 1132 -1145 29 -136 31 -388 4
-522 -121 -610 -568 -1061 -1171 -1182 -125 -24 -413 -24 -540 1 -605 119
-1071 567 -1197 1149 -32 150 -32 409 0 557 123 554 541 987 1088 1126 150 38
206 43 409 39 144 -3 211 -8 275 -23z m1538 -198 c80 -33 141 -120 142 -202 0
-37 -6 -50 -34 -78 -19 -19 -40 -34 -47 -34 -8 0 -2 12 14 25 l28 25 -23 30
c-53 67 -177 56 -310 -28 -26 -16 -28 -16 -45 1 -17 18 -17 19 12 43 99 81
119 101 132 132 8 19 13 46 11 60 -2 20 2 27 22 33 40 11 58 10 98 -7z m-3668
-29 c0 -54 23 -98 70 -136 24 -19 65 -55 91 -81 39 -37 47 -51 41 -67 -7 -20
-11 -18 -74 28 -102 74 -153 96 -225 96 -35 0 -58 2 -53 3 6 2 10 8 10 13 0
13 -30 -1 -30 -15 -1 -6 -12 -24 -25 -40 l-24 -30 21 -29 21 -29 -30 16 c-31
15 -63 69 -63 103 0 68 57 154 123 187 18 8 57 16 90 16 l57 0 0 -35z m-800
-440 c48 -33 69 -69 86 -145 l12 -55 1 58 c1 42 5 57 15 57 10 0 12 7 9 23
l-6 22 23 -22 c22 -20 24 -21 36 -5 11 15 14 13 30 -20 16 -35 16 -39 -5 -123
-12 -48 -24 -130 -26 -183 l-5 -97 14 75 c8 41 21 100 30 130 14 49 20 56 51
66 33 10 37 9 55 -16 29 -41 25 -64 -26 -149 -56 -92 -74 -140 -73 -195 1 -40
1 -40 10 13 14 82 36 118 111 178 38 31 76 69 84 84 19 37 18 89 -2 140 -19
47 -16 51 48 70 31 10 47 8 106 -10 71 -23 138 -58 129 -67 -3 -3 -19 2 -36
10 -32 17 -101 22 -101 7 0 -4 24 -11 53 -14 64 -6 130 -36 122 -55 -2 -7 3
-25 12 -39 21 -31 32 -193 14 -193 -6 0 -14 7 -17 15 -4 8 -10 12 -16 9 -5 -3
-4 -12 3 -21 10 -12 10 -19 1 -34 -8 -12 -10 -33 -6 -54 9 -50 -18 -46 -41 5
-59 131 -216 156 -328 51 -67 -62 -88 -169 -52 -262 7 -20 -4 -25 -78 -34 -45
-6 -57 -4 -57 6 0 8 -6 26 -14 40 -7 15 -42 111 -76 215 -35 104 -80 223 -100
264 -21 41 -44 94 -51 118 -7 24 -22 50 -33 57 -11 8 -17 17 -14 20 3 4 22 -8
42 -25 20 -18 36 -28 36 -22 0 21 -69 62 -104 62 -38 0 -44 8 -24 28 21 21 -7
13 -30 -8 -28 -26 -29 -73 -2 -107 11 -14 20 -37 20 -51 0 -23 -2 -24 -41 -19
-125 17 -114 162 16 223 50 24 145 14 195 -21z m593 -484 c16 -6 31 -25 41
-53 9 -24 14 -33 12 -20 -5 25 9 30 18 6 11 -28 6 -54 -9 -54 -8 0 -15 5 -15
10 0 6 -7 10 -15 10 -10 0 -15 10 -15 28 0 18 -10 36 -32 54 -34 28 -28 35 15
19z m3982 -16 c-38 -27 -45 -36 -45 -60 0 -15 -6 -25 -14 -25 -8 0 -16 -6 -19
-12 -3 -9 -8 -10 -15 -3 -14 14 -3 65 15 65 8 0 11 -5 7 -12 -4 -7 -3 -8 4 -4
7 4 12 18 12 30 0 17 8 26 33 33 39 12 49 6 22 -12z m-4088 -10 c-46 -32 -66
-70 -68 -128 -3 -63 16 -101 59 -123 20 -11 39 -21 42 -24 6 -7 177 6 208 15
23 8 23 7 20 -71 l-3 -79 -75 -13 c-68 -11 -81 -10 -139 8 -73 23 -89 20 -39
-7 27 -15 54 -18 156 -17 l122 1 0 -39 c0 -33 -4 -40 -27 -50 -40 -16 -239
-16 -288 1 -55 19 -105 58 -105 83 0 20 53 81 77 89 22 7 -17 79 -47 86 -34 8
-40 20 -40 76 0 92 94 217 165 217 15 0 11 -6 -18 -25z m4196 9 c18 -8 50 -37
72 -64 36 -43 41 -56 45 -115 4 -57 2 -69 -14 -83 -18 -16 -19 -16 -12 3 5 15
0 12 -19 -9 -14 -16 -25 -36 -25 -44 0 -9 -7 -24 -17 -34 -13 -15 -14 -18 -2
-18 17 0 73 -56 82 -83 10 -26 -35 -64 -96 -82 -29 -9 -90 -15 -144 -15 l-93
0 0 34 c0 45 13 53 90 58 44 3 84 13 123 32 75 35 69 43 -8 11 -35 -14 -87
-25 -125 -27 l-65 -3 3 65 c4 94 2 92 79 89 110 -4 158 32 170 128 7 66 -16
115 -71 148 -46 28 -25 35 27 9z m-3933 -203 c0 -19 -53 -51 -86 -51 -16 0
-104 46 -104 55 0 2 31 1 69 -2 46 -4 70 -2 75 6 12 19 46 13 46 -8z m3820 0
c0 -15 -56 -51 -78 -51 -15 0 -18 5 -15 24 4 20 12 26 42 29 20 2 39 4 44 5 4
1 7 -2 7 -7z m-4403 -169 c-17 -18 -23 -42 -11 -42 3 0 17 9 31 20 32 25 47
26 33 1 -13 -26 -13 -31 5 -31 9 0 15 -9 15 -25 0 -70 62 -143 155 -186 33
-14 116 -41 185 -58 79 -20 158 -48 216 -76 90 -45 244 -159 272 -202 l14 -23
-47 21 c-36 16 -59 20 -92 15 -40 -5 -46 -3 -84 34 -66 64 -159 104 -250 109
-181 8 -305 -80 -317 -224 -10 -121 75 -220 133 -155 10 11 23 20 29 20 6 0
-4 -14 -22 -30 -18 -17 -27 -30 -21 -30 6 0 23 13 39 29 24 24 28 33 21 57 -6
24 -16 32 -54 43 -43 13 -47 17 -47 46 0 42 17 62 68 79 55 20 85 7 111 -48
28 -59 34 -99 21 -145 -23 -86 -117 -151 -197 -136 -92 17 -207 106 -219 169
-9 51 31 176 57 176 6 0 7 -4 4 -10 -3 -5 -1 -10 4 -10 6 0 11 7 11 15 0 19
104 125 123 125 8 0 20 6 26 14 7 8 27 17 46 20 19 4 35 11 35 16 0 13 3 14
-74 -14 -75 -27 -139 -63 -176 -98 -14 -13 -33 -27 -44 -31 -10 -4 -16 -13
-13 -21 6 -15 -33 -46 -55 -45 -7 0 -3 4 10 9 26 11 30 30 5 28 -10 -1 -39 0
-65 0 l-48 2 0 49 c0 38 6 56 24 78 23 26 30 28 112 31 49 1 104 7 124 12 19
5 53 10 75 10 l40 1 -22 18 c-22 18 -26 18 -80 4 -76 -20 -142 -13 -192 20
-32 21 -42 36 -56 83 -17 60 -15 81 5 42 18 -34 51 -68 82 -84 36 -19 138 -30
138 -15 0 6 -10 11 -22 11 -13 0 -45 12 -73 25 -27 14 -41 22 -30 19 35 -12
218 -17 212 -7 -4 6 -37 12 -75 15 -118 9 -182 62 -182 151 0 52 16 88 53 119
36 31 59 37 34 10z m4846 -9 c116 -122 31 -273 -155 -273 -29 0 -48 -4 -48
-11 0 -8 29 -10 94 -7 83 3 99 7 137 33 28 18 39 22 29 10 -8 -10 -49 -34 -90
-54 -82 -39 -74 -52 18 -28 34 9 52 11 52 4 0 -12 25 9 26 21 1 14 47 83 51
78 10 -10 -8 -56 -22 -56 -7 0 -17 -5 -21 -12 -5 -8 -2 -9 9 -5 10 3 17 2 17
-4 0 -24 -23 -50 -62 -70 -36 -19 -51 -20 -108 -14 -102 12 -153 11 -157 -2
-3 -9 5 -13 24 -13 15 0 59 -6 96 -14 37 -8 91 -12 120 -9 43 4 57 1 79 -16
40 -32 69 -151 33 -138 -8 4 -17 2 -20 -3 -3 -4 1 -10 7 -12 8 -3 5 -9 -9 -16
-18 -10 -28 -9 -55 8 -36 22 -48 25 -48 11 0 -5 9 -13 21 -16 11 -4 18 -9 16
-12 -11 -11 -49 20 -59 47 -5 16 -13 28 -17 27 -3 -1 -17 8 -30 20 -31 29
-158 96 -173 91 -6 -2 10 -17 36 -32 47 -27 106 -96 106 -123 0 -8 5 -11 10
-8 6 4 7 11 4 17 -4 6 -1 9 7 6 20 -7 39 -48 39 -85 0 -18 5 -33 10 -33 15 0
12 -67 -4 -98 -22 -42 -66 -78 -129 -108 -48 -22 -69 -26 -118 -22 -71 5 -105
27 -137 89 -45 86 -12 213 63 239 23 8 32 8 40 -3 5 -7 19 -11 30 -9 16 4 17
2 7 -11 -11 -13 -9 -16 15 -19 25 -3 28 -7 28 -37 0 -31 -4 -36 -35 -44 -19
-5 -43 -16 -52 -24 -20 -18 -24 -53 -6 -53 6 0 22 -10 34 -21 65 -61 159 61
139 180 -14 83 -104 167 -207 191 -28 7 -83 10 -124 8 -92 -6 -185 -49 -241
-111 -36 -41 -40 -42 -74 -33 -28 7 -49 5 -85 -7 -27 -9 -50 -14 -52 -12 -2 1
18 24 45 50 109 107 260 186 461 240 212 56 304 116 318 206 4 24 15 46 27 54
17 12 19 17 9 27 -17 17 -15 27 4 24 26 -4 44 -36 44 -78 0 -21 5 -38 10 -38
16 0 12 96 -5 110 -16 13 -20 30 -7 30 5 0 20 -12 35 -27z m-4280 -274 c74
-25 155 -71 251 -144 91 -68 186 -165 164 -165 -9 0 -23 9 -31 21 -9 11 -18
16 -21 11 -9 -14 54 -61 73 -55 11 3 10 1 -2 -7 -18 -11 -17 -13 8 -40 23 -24
24 -28 9 -34 -20 -8 -14 -14 -58 62 -61 102 -217 219 -406 302 -88 39 -98 46
-83 57 22 17 23 17 96 -8z m3802 12 c-6 -5 -73 -41 -150 -80 -86 -43 -172 -96
-222 -136 -46 -36 -83 -63 -83 -60 0 21 47 89 83 122 69 60 238 144 299 149
28 1 53 6 56 9 3 3 10 5 16 5 6 0 6 -3 1 -9z m-3952 -8 c-7 -2 -19 -2 -25 0
-7 3 -2 5 12 5 14 0 19 -2 13 -5z m4004 -4 c-14 -8 -22 -8 -30 0 -8 8 -3 11
19 11 25 -1 27 -2 11 -11z m-4508 -335 c-8 -10 -21 -13 -38 -9 -49 12 -47 25
3 25 43 0 47 -2 35 -16z m954 -68 c70 -29 131 -137 146 -255 9 -72 15 -90 27
-78 5 5 -21 141 -42 217 -6 22 -3 21 29 -13 36 -37 51 -32 22 7 -22 28 -19 56
5 56 14 0 28 -16 48 -57 16 -32 32 -71 36 -87 7 -30 -17 -174 -37 -216 -6 -14
-13 -29 -15 -35 -3 -5 2 -3 10 5 8 8 26 41 38 73 13 31 26 57 30 57 20 0 50
-36 64 -76 15 -46 15 -47 -9 -76 -26 -31 -32 -48 -16 -48 5 0 15 14 23 30 7
17 16 30 21 30 15 0 -26 -66 -75 -119 -54 -59 -133 -172 -165 -236 -35 -68
-63 -174 -63 -236 l0 -59 -44 0 -45 0 -6 55 c-4 30 -1 137 7 238 13 151 13
200 3 287 -14 116 -17 128 -54 183 -33 52 -96 87 -153 87 -24 0 -47 2 -50 6
-9 9 10 76 24 85 7 5 36 9 63 9 l50 1 -30 14 -30 13 27 1 c19 1 49 -18 109
-69 45 -39 84 -69 87 -66 3 3 -3 26 -12 51 -12 31 -31 54 -59 74 -69 48 -100
86 -93 114 10 43 70 58 129 33z m3193 -11 c29 -29 24 -46 -27 -92 -98 -89
-106 -99 -123 -155 -24 -84 -19 -90 17 -18 27 55 41 70 87 97 30 18 64 32 75
32 17 -1 16 -2 -5 -9 -18 -6 -10 -8 32 -7 66 1 98 -19 98 -64 0 -30 6 -27
-103 -44 -49 -8 -71 -28 -110 -98 -47 -86 -62 -180 -53 -340 16 -306 18 -386
14 -399 -4 -10 -18 -13 -47 -10 -41 4 -41 4 -41 46 0 62 -34 184 -71 257 -43
87 -78 137 -160 227 -38 42 -72 87 -75 99 -9 33 23 116 55 147 29 28 29 28 36
6 11 -34 57 -132 60 -128 2 2 -8 36 -21 77 -35 108 -34 140 6 193 48 62 52 66
45 43 -5 -13 5 -8 29 18 20 20 38 37 40 37 2 0 -4 -23 -15 -50 -12 -32 -19
-73 -18 -113 l1 -62 14 65 c38 180 104 270 197 270 27 0 45 -7 63 -25z m-3519
-143 c-9 -10 -23 -34 -32 -54 -19 -46 -117 -129 -179 -153 -80 -31 -166 -3
-201 66 l-15 29 37 -26 c34 -23 46 -25 115 -22 57 2 82 8 95 20 16 17 13 17
-53 13 l-69 -5 75 24 c41 14 79 31 85 39 5 8 17 16 25 20 12 4 11 6 -2 6 -21
1 -23 11 -5 35 9 12 33 21 73 25 32 4 61 6 63 4 2 -2 -3 -11 -12 -21z m3805
13 c41 -5 48 -10 57 -37 6 -17 9 -34 6 -36 -3 -3 -5 0 -5 6 0 7 -8 12 -17 12
-26 0 45 -49 87 -60 19 -5 55 -14 80 -20 39 -8 33 -9 -40 -5 -76 4 -83 3 -66
-10 46 -35 164 -32 215 4 39 28 39 19 1 -29 -59 -75 -142 -79 -237 -14 -30 22
-66 46 -79 54 -12 8 -35 41 -50 75 -15 33 -29 63 -31 67 -2 3 4 5 14 3 10 -2
39 -7 65 -10z m-2992 -225 c0 -6 -60 -30 -73 -30 -4 0 -7 9 -7 19 0 27 -46 79
-73 83 -19 3 -22 10 -25 58 l-3 55 90 -90 c50 -49 91 -92 91 -95z m2282 78
c-7 -7 -12 -8 -12 -2 0 14 12 26 19 19 2 -3 -1 -11 -7 -17z m-3132 -30 c0 -13
-21 -57 -45 -98 -30 -49 -45 -86 -45 -108 0 -25 -4 -33 -14 -29 -13 5 -63 -50
-58 -65 1 -5 -11 -8 -26 -8 -38 0 -72 38 -79 88 -10 74 0 90 80 127 40 18 84
44 99 58 33 31 70 57 80 57 5 0 8 -10 8 -22z m3871 -15 c23 -21 73 -54 113
-74 87 -43 102 -66 85 -136 -15 -59 -22 -69 -56 -76 -22 -4 -34 3 -65 36 -20
23 -43 58 -49 77 -7 19 -29 61 -51 92 -72 107 -59 155 23 81z m-3824 -35 c4
-7 6 -43 4 -80 -3 -81 19 -138 73 -186 50 -43 92 -42 121 5 11 18 26 32 33 33
20 0 10 21 -21 44 -25 18 -29 18 -66 4 l-40 -16 -14 37 c-17 41 -10 62 28 87
15 10 22 21 18 31 -5 13 1 14 38 8 53 -8 91 -33 99 -66 4 -13 5 -75 2 -138
l-5 -113 -43 -20 c-65 -28 -171 -26 -232 4 -67 34 -83 61 -88 154 -4 69 -3 77
10 61 12 -16 14 -11 18 46 5 84 41 142 65 105z m3753 -3 c7 -8 15 -50 19 -92
5 -56 9 -72 15 -55 4 12 12 22 18 22 14 0 1 -133 -17 -176 -21 -50 -75 -77
-166 -82 -59 -3 -90 0 -128 14 l-51 18 0 67 c0 50 4 68 15 73 8 3 14 0 12 -7
-1 -7 4 -11 10 -10 7 2 19 -11 28 -27 31 -59 105 -47 154 24 40 57 52 109 45
184 -6 58 -5 62 13 62 11 0 26 -7 33 -15z m-2895 -35 c3 -5 45 -37 93 -71 48
-34 93 -68 100 -77 22 -28 15 -97 -14 -131 -14 -17 -30 -31 -36 -31 -5 0 1 13
15 30 35 40 43 84 23 115 -16 24 -36 34 -36 18 0 -5 9 -21 20 -38 18 -27 18
-31 3 -47 -21 -24 -33 -23 -33 2 0 28 -44 43 -105 36 -182 -21 -395 -263 -395
-450 0 -45 -10 -56 -51 -56 -24 0 -25 30 -4 118 21 90 57 153 130 231 36 38
65 73 65 79 0 6 20 27 45 47 54 45 81 87 90 140 11 64 14 72 38 83 28 14 44
14 52 2z m2715 -2 c0 -6 15 -24 33 -39 l32 -27 -15 -43 c-11 -30 -21 -43 -30
-40 -41 11 -82 12 -95 1 -8 -6 -19 -9 -24 -6 -5 4 -12 2 -16 -4 -15 -24 -25
-6 -25 46 0 50 3 59 34 90 26 26 42 34 70 34 21 0 36 -5 36 -12z m-606 -148
c14 -21 45 -57 70 -81 25 -23 46 -46 46 -50 0 -5 22 -29 48 -53 27 -25 60 -67
75 -93 35 -65 99 -244 93 -260 -6 -14 -44 -17 -63 -5 -7 4 -17 38 -23 75 -12
77 -32 134 -68 191 -56 91 -196 200 -286 226 -25 7 -46 16 -46 20 0 4 15 12
33 18 l32 10 -30 1 c-16 0 -40 -2 -53 -5 -19 -5 -20 -9 -10 -22 11 -13 9 -14
-14 -9 -24 6 -30 3 -44 -25 -22 -43 -21 -43 -39 -28 -24 20 -19 -16 6 -41 11
-11 18 -24 14 -27 -10 -10 -55 46 -55 69 0 10 4 19 9 19 5 0 12 8 15 18 3 9
37 36 75 60 38 23 93 60 123 82 l53 40 7 -46 c4 -25 18 -63 32 -84z m911 -26
c9 -15 12 -23 6 -20 -11 7 -35 46 -28 46 3 0 12 -12 22 -26z m-2674 -43 c124
-58 228 -93 368 -124 l103 -23 -29 -19 c-15 -10 -33 -25 -39 -33 -9 -12 -17
-13 -49 -2 -52 17 -106 0 -142 -45 -24 -30 -34 -35 -71 -35 -25 0 -75 12 -115
29 -100 40 -247 112 -247 120 0 4 16 15 36 24 40 19 64 65 64 122 0 19 4 35 9
35 4 0 55 -22 112 -49z m1428 -33 c25 -70 101 -115 150 -89 11 6 26 29 32 51
13 44 21 46 84 29 l39 -11 -23 -19 c-48 -39 -219 -128 -332 -173 -113 -45
-118 -46 -192 -40 -62 6 -78 10 -82 25 -4 10 -18 28 -33 40 -22 17 -38 20 -92
18 -56 -3 -70 0 -95 19 -15 12 -26 24 -24 25 2 2 51 11 109 20 127 20 248 54
355 100 44 19 83 35 87 36 3 1 11 -13 17 -31z m-1742 -13 c3 -9 3 -19 -1 -22
-7 -8 -56 17 -56 29 0 15 50 8 57 -7z m971 -130 c38 -16 82 -52 82 -67 0 -4
-16 -8 -35 -8 -19 0 -35 5 -35 10 0 13 -97 13 -102 1 -1 -5 -40 -13 -85 -16
-90 -8 -100 -2 -60 36 57 55 161 74 235 44z m168 -4 c22 -10 51 -31 63 -47 20
-26 21 -29 6 -32 -10 -2 -37 -1 -62 3 -39 6 -47 11 -59 41 -8 19 -21 34 -29
34 -7 0 -17 5 -20 10 -10 17 57 11 101 -9z m-1440 -82 c-8 -25 -17 -80 -21
-122 -7 -72 -9 -77 -31 -77 -21 0 -23 3 -18 33 12 63 26 111 50 165 29 65 39
65 20 1z m2576 -43 c11 -22 23 -66 25 -98 5 -54 4 -58 -16 -58 -25 0 -25 0
-40 112 -6 48 -14 96 -17 105 -9 28 23 -13 48 -61z m-1047 24 c224 -14 390
-36 530 -70 197 -47 322 -78 464 -115 74 -19 178 -39 230 -45 122 -13 253 1
293 30 23 17 28 18 28 5 0 -26 -26 -80 -68 -142 -56 -83 -90 -155 -98 -205 -9
-57 -30 -97 -59 -110 -34 -15 -150 3 -388 63 -456 113 -586 134 -782 126 -82
-4 -159 -13 -210 -26 -132 -34 -231 -37 -370 -10 -100 20 -149 24 -295 23
-202 -1 -282 -14 -650 -99 -238 -55 -393 -85 -437 -85 -37 0 -79 48 -88 100
-13 75 -33 121 -95 215 -33 50 -63 105 -66 124 l-7 33 32 -16 c17 -9 68 -21
113 -27 137 -17 251 3 808 147 291 75 728 108 1115 84z m-1873 -147 c2 -32 3
-60 1 -62 -6 -8 -124 35 -125 45 -1 9 99 74 113 74 4 0 9 -26 11 -57z m3315
10 l55 -36 -34 -14 c-18 -8 -53 -18 -77 -23 l-43 -8 6 45 c3 25 6 55 6 65 0
25 13 21 87 -29z m-1322 -387 c-5 -28 -3 -46 4 -50 7 -5 11 2 11 18 0 13 4 36
10 50 8 23 15 26 60 26 l50 0 -24 -37 c-36 -54 -50 -131 -37 -193 14 -64 47
-129 69 -136 9 -3 31 -13 49 -22 48 -24 49 -9 2 22 -58 39 -79 92 -69 172 4
33 12 69 18 80 12 24 106 104 121 104 18 0 13 -14 -10 -28 -28 -18 -59 -88
-59 -135 0 -49 26 -104 59 -125 14 -9 28 -20 31 -24 3 -4 48 -5 100 -3 100 4
183 24 237 56 18 11 38 19 45 18 20 -3 49 12 42 23 -7 11 74 98 91 98 5 0 -10
-18 -35 -39 -25 -21 -42 -43 -37 -47 4 -4 27 11 50 34 46 45 53 47 110 31 l37
-10 -29 -42 c-39 -58 -145 -157 -211 -200 -88 -56 -141 -70 -255 -70 -109 0
-143 10 -221 63 -52 36 -75 31 -29 -6 149 -121 353 -118 540 7 74 50 178 153
212 209 17 30 20 31 63 25 25 -4 47 -8 49 -10 6 -7 -70 -125 -111 -173 -94
-109 -220 -189 -346 -218 -48 -11 -104 -15 -198 -12 -146 3 -156 7 -181 70
-20 51 -85 91 -120 75 -21 -9 -27 -7 -53 24 -44 51 -96 162 -125 269 -35 133
-34 138 18 143 23 2 50 4 60 5 16 2 17 -3 12 -42z m-791 18 c3 -9 6 -26 6 -39
0 -13 5 -27 10 -30 6 -4 10 12 10 41 l0 47 38 -7 c20 -3 45 -6 55 -6 23 0 22
-26 -8 -140 -30 -112 -83 -222 -129 -274 -34 -37 -66 -47 -66 -22 0 8 -7 17
-16 20 -21 8 -24 8 -24 -5 0 -6 -9 -32 -21 -59 -25 -58 -55 -75 -154 -89 -165
-24 -399 42 -533 148 -29 23 -74 70 -99 104 -46 63 -90 143 -82 151 2 2 24 7
49 11 45 6 45 6 73 -39 75 -120 213 -229 338 -267 98 -30 230 -24 311 13 163
75 244 264 173 404 -14 27 -25 50 -25 52 0 1 20 2 44 2 31 0 46 -5 50 -16z
m-168 -36 c57 -53 76 -87 68 -127 -4 -18 -2 -37 5 -45 16 -20 -17 -84 -61
-120 -18 -14 -39 -31 -46 -37 -27 -22 -1 -22 29 0 19 14 30 18 27 10 -2 -8
-39 -32 -83 -54 -74 -37 -84 -40 -160 -39 -184 3 -353 94 -471 256 -41 56 -39
62 29 74 37 6 42 4 96 -50 32 -31 60 -54 63 -51 3 4 28 -5 55 -18 27 -14 81
-35 121 -47 65 -20 78 -21 144 -10 148 23 178 48 178 149 0 51 -31 131 -52
131 -4 0 -8 5 -8 10 0 20 21 9 66 -32z m1394 -7 c0 -17 -4 -33 -10 -36 -5 -3
-10 3 -10 14 0 10 -3 26 -6 35 -4 11 -1 16 10 16 11 0 16 -9 16 -29z m-1613
-11 c0 -18 -6 -30 -14 -30 -7 0 -13 -7 -13 -15 0 -18 -14 -19 -28 -2 -12 15
-5 58 12 69 25 17 43 8 43 -22z m1723 -6 c0 -30 -19 -28 -31 4 -7 18 -5 22 11
22 15 0 20 -7 20 -26z m-1820 7 c0 -6 -4 -13 -10 -16 -5 -3 -10 -1 -10 5 0 6
-4 8 -10 5 -5 -3 -10 -1 -10 4 0 6 9 11 20 11 11 0 20 -4 20 -9z m955 -45 c28
-12 57 -31 65 -42 14 -18 14 -18 -2 -5 -22 17 -23 8 -2 -24 9 -14 24 -25 33
-25 9 -1 63 -63 121 -141 57 -77 115 -147 129 -155 24 -16 83 -15 125 2 17 6
18 4 11 -22 -4 -16 -8 -38 -10 -49 -1 -11 -3 -24 -4 -28 0 -4 -16 -14 -33 -22
-30 -13 -31 -14 -8 -15 21 0 23 -2 10 -15 -9 -8 -30 -17 -48 -21 -30 -6 -37
-2 -85 47 -28 30 -57 63 -63 74 -7 11 -15 17 -20 12 -4 -4 2 -17 13 -30 12
-12 26 -40 32 -62 l10 -40 -25 30 c-14 17 -30 39 -35 50 -8 16 -8 15 -4 -8 3
-16 3 -44 -1 -64 -6 -34 -8 -35 -20 -18 -8 10 -14 34 -14 52 0 40 -30 73 -65
73 -14 0 -25 -4 -25 -9 0 -20 23 -68 62 -135 l42 -69 -24 -19 c-14 -11 -26
-15 -28 -9 -2 6 -12 7 -27 1 -27 -10 -39 0 -80 70 -26 44 -27 44 -21 12 3 -18
17 -48 31 -66 35 -46 33 -93 -5 -136 -23 -26 -30 -29 -30 -16 0 15 -3 16 -14
7 -11 -10 -15 10 -23 121 -9 121 -10 125 -11 52 -1 -45 -5 -115 -8 -157 l-7
-76 -26 17 c-88 54 -108 106 -66 170 37 57 66 138 59 167 -9 37 -24 30 -24
-10 0 -69 -38 -127 -92 -140 -36 -9 -38 15 -4 56 25 29 44 108 31 128 -14 24
-33 9 -40 -31 -10 -58 -40 -115 -65 -123 -29 -9 -80 4 -87 22 -10 26 26 77 71
102 46 24 93 67 84 76 -3 3 -20 -8 -38 -25 -18 -17 -43 -36 -54 -42 -18 -9
-17 -6 5 18 51 56 68 124 31 124 -27 0 -48 -29 -55 -75 -4 -22 -15 -51 -25
-65 -24 -33 -98 -70 -140 -70 -29 0 -34 3 -29 20 3 13 -1 21 -14 25 -28 9 -51
49 -47 82 3 25 11 31 67 50 80 27 111 57 157 151 60 121 217 272 283 272 14 0
49 -11 76 -24z m-1085 -38 c19 -10 42 -18 52 -18 9 0 20 -4 23 -10 3 -5 1 -10
-5 -10 -6 0 -9 -4 -6 -9 9 -14 124 -34 163 -28 l38 6 -35 -30 c-42 -37 -83
-35 -163 6 -78 39 -183 125 -166 136 9 5 23 2 39 -9 14 -9 41 -24 60 -34z
m2154 43 c8 -13 -102 -98 -171 -132 -34 -17 -82 -33 -105 -36 -37 -4 -49 0
-85 27 -53 39 -55 52 -5 35 31 -11 51 -11 116 0 84 15 107 24 60 26 -29 1 -29
1 6 11 52 15 129 50 142 65 12 15 34 17 42 4z"/>
<path d="M3354 5761 c-28 -17 -94 -91 -94 -105 0 -4 19 13 43 36 23 24 56 53
72 65 37 27 22 30 -21 4z"/>
<path d="M2425 5710 c-3 -5 -2 -10 4 -10 5 0 13 5 16 10 3 6 2 10 -4 10 -5 0
-13 -4 -16 -10z"/>
<path d="M2700 5682 c0 -12 19 -26 26 -19 2 2 -2 10 -11 17 -9 8 -15 8 -15 2z"/>
<path d="M2440 5350 c0 -5 5 -10 11 -10 5 0 7 5 4 10 -3 6 -8 10 -11 10 -2 0
-4 -4 -4 -10z"/>
<path d="M2288 5253 c6 -2 18 -2 25 0 6 3 1 5 -13 5 -14 0 -19 -2 -12 -5z"/>
<path d="M3898 5253 c7 -3 16 -2 19 1 4 3 -2 6 -13 5 -11 0 -14 -3 -6 -6z"/>
<path d="M3610 5120 c-9 -6 -10 -10 -3 -10 6 0 15 5 18 10 8 12 4 12 -15 0z"/>
<path d="M4320 5123 c0 -13 29 -38 35 -31 3 3 -4 13 -15 23 -11 10 -20 13 -20
8z"/>
<path d="M2993 5052 c-7 -5 -9 -29 -6 -75 6 -67 6 -67 36 -67 l30 0 -7 53 c-3
28 -6 62 -6 75 0 22 -23 30 -47 14z"/>
<path d="M3060 5054 c0 -15 32 -130 39 -136 3 -4 23 -5 43 -2 39 7 41 10 53
97 l7 47 -30 0 c-29 0 -31 -3 -34 -42 l-4 -43 -8 43 c-8 38 -11 42 -37 42 -16
0 -29 -3 -29 -6z"/>
<path d="M3226 5014 c-12 -92 -10 -104 24 -104 l30 0 0 65 c0 36 0 68 0 73 0
4 -10 8 -23 10 -22 3 -25 -2 -31 -44z"/>
<path d="M2878 5043 c-39 -4 -56 -33 -19 -33 15 0 20 -10 26 -55 6 -52 8 -55
36 -55 28 0 29 0 23 48 -3 26 -7 52 -9 59 -2 6 6 13 17 16 11 3 17 10 13 16
-6 11 -15 11 -87 4z"/>
<path d="M3323 5043 c-24 -9 -14 -51 17 -73 17 -12 30 -28 30 -36 0 -21 -17
-17 -23 6 -7 27 -47 27 -47 0 0 -24 28 -40 73 -40 64 0 74 50 17 83 -29 18
-40 37 -20 37 6 0 10 -4 10 -9 0 -5 11 -11 25 -13 20 -4 25 -1 25 14 0 28 -67
48 -107 31z"/>
<path d="M3460 5015 c0 -8 7 -15 16 -15 12 0 15 -6 10 -22 -14 -54 -18 -98 -8
-98 6 0 17 -3 25 -6 12 -4 18 8 28 50 9 43 16 56 31 56 39 0 16 27 -33 38 -65
15 -69 15 -69 -3z"/>
<path d="M2709 5001 c-22 -18 -22 -20 -8 -72 13 -50 17 -54 46 -57 56 -6 116
42 88 70 -13 13 -55 -5 -55 -23 0 -38 -19 -18 -26 26 -7 48 3 76 13 37 5 -23
16 -26 44 -14 12 5 14 13 8 30 -7 18 -16 22 -48 22 -23 0 -48 -8 -62 -19z"/>
<path d="M2579 4969 c-25 -9 -25 -10 -17 -77 5 -37 11 -69 13 -71 2 -2 16 0
30 3 18 5 25 12 21 21 -3 9 0 15 8 15 8 0 16 -5 18 -11 2 -7 11 -7 30 1 l26
13 -36 58 c-38 60 -47 65 -93 48z m45 -64 c3 -8 1 -15 -4 -15 -6 0 -10 7 -10
15 0 8 2 15 4 15 2 0 6 -7 10 -15z"/>
<path d="M3598 4925 c-9 -21 -8 -28 7 -45 24 -27 51 -25 70 4 23 34 5 66 -36
66 -22 0 -32 -6 -41 -25z"/>
<path d="M3748 4903 c-49 -74 -51 -81 -27 -94 15 -8 24 -8 32 0 17 17 27 13
27 -9 0 -11 4 -20 9 -20 5 0 16 -3 24 -6 16 -6 20 7 33 97 6 45 5 47 -27 58
-44 15 -43 16 -71 -26z m43 -50 c-8 -15 -10 -15 -11 -2 0 17 10 32 18 25 2 -3
-1 -13 -7 -23z"/>
<path d="M2453 4889 c-17 -6 -23 -16 -23 -38 0 -54 73 -68 86 -16 10 40 -24
69 -63 54z"/>
<path d="M2308 4854 c-48 -25 -66 -51 -28 -41 17 4 25 -4 45 -44 27 -53 32
-56 59 -36 17 13 17 16 -8 64 -22 44 -23 52 -10 57 8 3 12 10 9 16 -8 14 -13
13 -67 -16z"/>
<path d="M3880 4848 c-36 -58 -37 -79 -4 -105 32 -25 73 -30 92 -11 17 17 15
23 -13 36 -20 9 -26 8 -34 -6 -20 -36 -21 -2 -1 37 23 45 40 54 33 17 -4 -18
0 -26 17 -31 24 -8 42 9 37 35 -3 18 -64 60 -89 60 -10 0 -27 -15 -38 -32z"/>
<path d="M4034 4809 c-4 -6 0 -16 9 -21 14 -7 12 -15 -16 -59 -30 -49 -31 -52
-12 -65 26 -19 27 -19 59 31 21 34 33 44 46 40 37 -12 29 15 -12 43 -63 42
-66 43 -74 31z"/>
<path d="M2178 4785 c-59 -33 -42 -91 24 -82 36 5 58 -6 43 -21 -3 -3 -9 -1
-14 6 -5 9 -12 8 -29 -4 -19 -13 -21 -19 -11 -31 16 -18 56 -9 87 19 45 43 19
84 -48 73 -28 -5 -40 -3 -40 5 0 7 6 10 14 7 19 -7 51 17 42 31 -10 16 -35 14
-68 -3z"/>
<path d="M4122 4680 l-41 -58 23 -15 c22 -15 24 -14 64 40 42 58 44 66 13 82
-15 8 -25 0 -59 -49z"/>
<path d="M2082 4713 c-20 -18 -20 -18 22 -75 41 -55 42 -56 64 -39 l23 17 -41
57 c-23 31 -43 57 -44 57 -2 0 -13 -8 -24 -17z"/>
<path d="M2025 4670 c-16 -18 -17 -23 -4 -48 23 -46 22 -48 -9 -19 -26 25 -32
27 -51 15 -11 -7 -21 -16 -21 -20 0 -8 100 -88 111 -88 4 0 20 11 36 24 l28
24 -30 62 c-16 34 -32 63 -36 66 -3 2 -14 -5 -24 -16z"/>
<path d="M4193 4626 l-32 -64 35 -27 34 -26 56 47 55 47 -20 21 -21 20 -30
-29 c-34 -32 -38 -27 -13 16 16 28 16 29 -2 44 -11 8 -22 15 -25 15 -3 0 -20
-29 -37 -64z"/>
<path d="M4310 4539 c-56 -65 -56 -65 -30 -79 19 -10 27 -8 57 22 52 49 59 67
36 89 -19 19 -20 18 -63 -32z"/>
<path d="M1895 4560 c-19 -21 -18 -21 33 -73 l52 -52 20 21 20 20 -53 52 -53
53 -19 -21z"/>
<path d="M1816 4476 c-23 -29 -32 -47 -25 -51 6 -4 16 -2 22 4 8 8 22 1 52
-29 l41 -41 19 21 c18 20 18 21 -24 64 -27 27 -39 46 -32 50 15 10 14 26 -3
26 -7 0 -30 -20 -50 -44z"/>
<path d="M4390 4505 c-8 -9 -10 -28 -6 -50 9 -48 9 -49 -4 -53 -8 -3 -10 3 -6
15 8 26 -19 52 -36 35 -30 -30 44 -118 80 -95 16 10 21 45 11 87 -2 10 2 21 9
23 7 3 10 -1 7 -9 -2 -7 2 -22 11 -33 13 -17 16 -18 24 -5 15 23 12 30 -24 66
-38 38 -48 41 -66 19z"/>
<path d="M4507 4413 c-4 -6 -5 -18 -1 -26 3 -9 -11 -28 -38 -50 -42 -35 -42
-36 -24 -56 18 -20 18 -20 64 15 26 19 48 31 50 25 5 -15 32 -14 32 2 -1 20
-76 101 -83 90z"/>
<path d="M1733 4385 c-11 -8 -26 -29 -32 -46 -10 -29 -8 -34 26 -65 44 -41 74
-43 102 -8 28 35 35 62 21 79 -17 20 -27 19 -40 -6 -8 -15 -8 -24 0 -34 24
-29 -8 -21 -45 11 -35 31 -37 35 -15 30 32 -7 65 21 49 41 -15 17 -39 17 -66
-2z"/>
<path d="M1626 4235 c-9 -13 -16 -28 -16 -33 0 -4 22 -30 50 -57 48 -47 50
-48 65 -30 17 24 18 32 5 40 -15 9 -2 25 15 19 11 -5 35 22 35 40 0 6 -107 46
-124 46 -8 0 -21 -11 -30 -25z m80 -53 c-4 -3 -14 2 -24 12 -16 18 -16 18 6 6
13 -6 21 -14 18 -18z"/>
<path d="M4558 4249 c-28 -16 -23 -67 7 -81 21 -9 28 -8 45 7 26 24 25 50 -2
69 -26 19 -27 19 -50 5z"/>
<path d="M4655 4113 c-32 -8 -61 -15 -63 -17 -8 -9 23 -56 34 -52 17 7 30 -14
15 -24 -14 -8 -4 -60 11 -60 10 0 128 88 128 95 0 2 -8 20 -17 40 -18 39 -22
39 -108 18z m41 -58 c-11 -8 -22 -12 -25 -9 -6 6 19 24 34 24 6 -1 1 -7 -9
-15z"/>
<path d="M1570 4081 c-14 -27 -13 -37 6 -55 23 -23 51 -20 69 8 13 19 14 29 5
45 -14 28 -65 29 -80 2z"/>
<path d="M1486 3978 c-23 -56 -27 -76 -17 -82 5 -4 14 1 19 9 8 14 14 14 62
-5 29 -11 54 -19 55 -18 2 2 6 14 10 28 6 24 2 27 -45 44 -42 15 -51 22 -47
37 9 33 -23 21 -37 -13z"/>
<path d="M4736 3974 c-53 -19 -66 -32 -66 -63 0 -36 35 -91 59 -91 26 0 33 13
25 44 -5 21 -10 25 -30 20 -44 -11 -25 14 23 30 26 9 50 16 55 16 16 0 7 -19
-12 -25 -16 -5 -19 -12 -14 -28 10 -33 20 -40 43 -28 25 14 28 58 6 100 -11
23 -38 45 -48 40 -1 0 -20 -7 -41 -15z"/>
<path d="M1434 3835 c-20 -48 -18 -72 7 -86 18 -9 26 -6 55 22 26 26 37 30 46
21 9 -9 7 -12 -10 -12 -12 0 -22 -4 -22 -9 0 -5 -3 -17 -6 -26 -6 -13 -1 -16
22 -13 24 2 31 10 43 46 10 34 10 46 1 57 -19 23 -57 18 -76 -10 -16 -25 -44
-34 -44 -14 0 5 5 7 10 4 11 -7 31 35 23 48 -11 18 -35 4 -49 -28z"/>
<path d="M4838 3833 c0 -5 -1 -15 -2 -23 -1 -8 -23 -20 -53 -30 -63 -18 -66
-21 -58 -53 l7 -24 59 15 c56 16 59 15 73 -3 24 -33 30 4 11 69 -14 49 -32 72
-37 49z"/>
<path d="M1399 3715 c-1 -8 -2 -20 -3 -27 -1 -6 29 -19 67 -29 l67 -17 6 25
c8 31 7 32 -63 48 -73 18 -73 18 -74 0z"/>
<path d="M4815 3666 c-44 -8 -61 -16 -63 -29 -8 -41 2 -45 77 -32 39 7 74 15
77 18 10 10 -6 57 -19 56 -6 -1 -39 -6 -72 -13z"/>
<path d="M1384 3645 c-11 -27 2 -48 36 -61 l35 -12 -41 -1 c-40 -1 -54 -12
-54 -42 0 -5 33 -9 74 -9 l74 0 7 41 c4 22 5 42 3 44 -1 2 -31 14 -66 29 -51
20 -64 22 -68 11z"/>
<path d="M4838 3573 c-67 -25 -68 -26 -68 -62 0 -20 4 -41 8 -47 8 -13 146
-23 150 -11 1 4 2 18 2 32 0 23 -4 25 -42 26 l-43 2 38 10 c33 9 37 14 37 44
0 18 -3 33 -7 32 -5 0 -38 -12 -75 -26z"/>
<path d="M1357 3469 c-4 -13 -3 -27 1 -30 4 -4 37 -9 75 -12 l67 -6 0 29 c0
25 -4 30 -24 30 -13 0 -43 3 -68 6 -41 6 -46 4 -51 -17z"/>
<path d="M4848 3413 c-68 -4 -68 -4 -68 -33 l0 -30 80 0 80 0 0 35 c0 22 -5
34 -12 33 -7 -1 -43 -3 -80 -5z"/>
<path d="M1350 3381 c0 -16 -3 -43 -6 -60 -5 -24 -3 -31 10 -31 9 0 16 7 16
15 0 12 13 15 61 15 60 0 60 0 57 28 -3 25 -7 27 -55 30 -38 2 -53 7 -53 18 0
7 -7 14 -15 14 -10 0 -15 -10 -15 -29z"/>
<path d="M4808 3319 c-22 -13 -34 -74 -19 -105 7 -17 19 -24 39 -24 23 0 33 8
51 40 21 38 41 52 41 30 0 -5 -4 -10 -10 -10 -5 0 -10 -14 -10 -31 0 -41 31
-36 43 8 12 40 2 79 -22 93 -27 14 -45 4 -64 -35 -15 -32 -47 -49 -47 -25 0 6
7 10 15 10 10 0 15 10 15 30 0 32 -5 35 -32 19z"/>
<path d="M1355 3246 c-21 -32 -13 -91 15 -106 12 -7 38 -7 67 -3 48 8 48 9 51
50 4 50 -11 83 -38 83 -16 0 -20 -7 -20 -30 0 -24 4 -30 21 -30 11 0 17 -4 14
-10 -3 -5 -26 -10 -51 -10 -24 0 -44 5 -44 10 0 6 9 10 21 10 16 0 20 5 17 27
-4 37 -32 41 -53 9z"/>
<path d="M4910 3144 c0 -14 -9 -15 -65 -9 l-65 7 0 -30 c0 -25 5 -30 31 -36
17 -3 44 -6 60 -6 22 0 29 -5 29 -20 0 -11 7 -20 15 -20 8 0 15 8 15 19 0 10
3 39 6 65 6 38 4 46 -10 46 -9 0 -16 -7 -16 -16z"/>
<path d="M1420 3106 c-46 -16 -65 -28 -64 -39 3 -69 -1 -64 75 -72 38 -4 72
-5 75 -2 11 10 -9 57 -25 57 -14 1 -14 2 2 14 17 13 23 51 9 60 -4 2 -36 -6
-72 -18z m30 -56 c0 -5 -6 -10 -14 -10 -8 0 -18 5 -21 10 -3 6 3 10 14 10 12
0 21 -4 21 -10z"/>
<path d="M4808 3029 c-27 -15 -24 -67 5 -78 46 -18 84 33 51 70 -19 21 -31 23
-56 8z"/>
<path d="M1267 4903 c6 -16 5 -16 -10 -4 -10 8 -20 12 -23 9 -7 -7 62 -58 78
-58 8 0 20 -6 27 -12 11 -11 11 -9 2 7 -18 33 -35 51 -58 64 -20 10 -22 9 -16
-6z"/>
<path d="M1170 4901 c0 -11 105 -91 120 -91 16 0 12 9 -17 36 -35 30 -103 68
-103 55z"/>
<path d="M561 4574 c0 -11 3 -14 6 -6 3 7 2 16 -1 19 -3 4 -6 -2 -5 -13z"/>
<path d="M4902 4889 c-29 -28 -51 -54 -48 -56 3 -3 19 11 37 31 18 21 48 46
68 56 26 14 31 19 16 19 -11 0 -44 -22 -73 -50z"/>
<path d="M4940 4799 c0 -5 5 -7 10 -4 6 3 10 8 10 11 0 2 -4 4 -10 4 -5 0 -10
-5 -10 -11z"/>
<path d="M4980 4795 c-14 -8 -19 -14 -10 -14 8 0 24 6 34 14 25 19 9 19 -24 0z"/>
<path d="M5481 4495 c-1 -11 -4 -44 -7 -72 -6 -45 -4 -53 10 -53 11 0 16 8 15
28 -1 38 -16 121 -18 97z"/>
<path d="M1550 4860 c-13 -8 -12 -10 3 -10 9 0 17 5 17 10 0 12 -1 12 -20 0z"/>
<path d="M1535 4523 c15 -32 25 -42 25 -24 0 5 -9 19 -20 32 l-21 24 16 -32z"/>
<path d="M4640 4855 c7 -9 15 -13 17 -11 7 7 -7 26 -19 26 -6 0 -6 -6 2 -15z"/>
<path d="M4320 4786 c0 -2 7 -7 16 -10 8 -3 12 -2 9 4 -6 10 -25 14 -25 6z"/>
<path d="M4660 4525 c-8 -9 -8 -15 -2 -15 12 0 26 19 19 26 -2 2 -10 -2 -17
-11z"/>
<path d="M2906 4667 c-33 -7 -61 -16 -62 -22 -2 -5 -10 -107 -18 -225 -63
-892 -166 -2324 -170 -2363 -5 -47 -5 -49 30 -63 51 -21 222 -61 297 -69 l64
-7 7 126 c3 69 9 182 12 251 l6 125 68 0 68 0 6 -82 c3 -46 9 -157 13 -248 l8
-165 32 -3 c40 -4 183 22 281 50 67 19 72 23 72 48 0 90 -213 2637 -221 2645
-15 15 -421 17 -493 2z m264 -1187 c11 -223 23 -442 26 -487 4 -46 3 -83 -2
-84 -5 0 -35 -2 -66 -3 l-58 -2 0 40 c0 23 11 214 25 426 13 212 27 430 30
485 8 129 19 172 22 90 2 -33 12 -242 23 -465z"/>
<path d="M2416 4486 c-74 -45 -122 -81 -207 -153 l-68 -58 26 -21 c24 -19 27
-30 34 -120 4 -54 8 -224 9 -376 l0 -278 195 0 195 0 0 153 c0 198 -17 544
-31 627 -13 83 -56 214 -77 240 -17 21 -17 21 -76 -14z"/>
<path d="M3776 4473 c-63 -125 -76 -228 -83 -640 l-6 -353 196 0 196 0 3 376
3 376 25 20 25 20 -58 54 c-64 59 -180 145 -239 175 l-38 19 -24 -47z"/>
<path d="M2023 4133 c-80 -110 -88 -123 -141 -228 -97 -195 -143 -386 -143
-600 -1 -238 40 -403 154 -629 44 -86 150 -244 174 -259 4 -3 8 397 8 889 0
492 -1 894 -2 894 0 0 -23 -30 -50 -67z"/>
<path d="M4215 3300 c0 -663 3 -876 12 -869 29 25 119 170 168 271 105 219
140 372 139 603 0 126 -5 182 -23 265 -27 125 -78 267 -133 370 -42 77 -131
212 -151 229 -9 7 -12 -206 -12 -869z"/>
<path d="M2209 2808 c0 -307 -10 -420 -37 -457 l-21 -29 67 -57 c82 -69 227
-167 250 -169 22 -1 58 70 82 166 27 102 39 256 42 528 l3 235 -192 3 -193 2
-1 -222z"/>
<path d="M3690 2808 c0 -239 12 -409 35 -520 14 -68 71 -208 85 -208 3 0 47
27 96 59 102 67 236 189 216 197 -33 15 -37 48 -42 369 l-5 320 -192 3 -193 2
0 -222z"/>
<path d="M4990 4366 c0 -2 7 -7 16 -10 8 -3 12 -2 9 4 -6 10 -25 14 -25 6z"/>
<path d="M5113 4320 c0 -25 2 -35 4 -22 2 12 2 32 0 45 -2 12 -4 2 -4 -23z"/>
<path d="M1090 4315 c0 -27 3 -45 7 -41 7 7 5 77 -3 85 -2 2 -4 -17 -4 -44z"/>
<path d="M880 3322 c0 -5 7 -15 15 -22 8 -7 15 -8 15 -2 0 5 -7 15 -15 22 -8
7 -15 8 -15 2z"/>
<path d="M980 3181 c0 -5 -8 -12 -17 -14 -15 -4 -15 -5 -2 -6 9 0 22 6 29 14
9 10 9 15 1 15 -6 0 -11 -4 -11 -9z"/>
<path d="M5200 3179 c0 -5 5 -7 10 -4 6 3 10 8 10 11 0 2 -4 4 -10 4 -5 0 -10
-5 -10 -11z"/>
<path d="M900 2800 c8 -5 24 -10 35 -10 17 0 17 2 5 10 -8 5 -24 10 -35 10
-17 0 -17 -2 -5 -10z"/>
<path d="M923 2513 c9 -2 25 -2 35 0 9 3 1 5 -18 5 -19 0 -27 -2 -17 -5z"/>
<path d="M5270 2800 l-25 -8 27 -1 c15 -1 30 4 33 9 7 11 0 11 -35 0z"/>
<path d="M5226 2761 c5 -5 20 -12 34 -15 l25 -7 -25 15 c-28 17 -50 21 -34 7z"/>
<path d="M5210 2361 c0 -13 26 -32 33 -24 8 7 -11 33 -24 33 -5 0 -9 -4 -9 -9z"/>
<path d="M1758 2380 c12 -21 18 -25 20 -14 4 16 -15 44 -29 44 -4 0 0 -13 9
-30z"/>
<path d="M1438 2293 c7 -3 16 -2 19 1 4 3 -2 6 -13 5 -11 0 -14 -3 -6 -6z"/>
<path d="M1350 2000 c-8 -5 -12 -12 -9 -15 4 -3 12 1 19 10 14 17 11 19 -10 5z"/>
<path d="M1360 1965 c-10 -12 -10 -15 3 -15 8 0 20 7 27 15 10 12 10 15 -3 15
-8 0 -20 -7 -27 -15z"/>
<path d="M3491 1461 c-21 -6 -27 -17 -41 -81 -9 -41 -20 -87 -23 -102 -7 -27
-6 -28 28 -28 36 0 38 3 49 53 5 23 11 27 40 27 34 0 34 0 25 -32 -5 -18 -9
-34 -9 -36 0 -2 17 -2 37 0 l37 3 22 103 22 102 -34 0 c-35 0 -37 -3 -48 -52
-5 -24 -11 -28 -40 -28 -34 0 -34 1 -26 31 9 31 6 50 -8 48 -4 -1 -18 -4 -31
-8z"/>
<path d="M3315 1445 c-51 -18 -72 -45 -81 -102 -14 -92 14 -121 102 -107 55 8
59 11 62 37 3 28 3 28 -42 22 -42 -7 -46 -5 -51 17 -11 42 10 74 57 89 32 10
44 20 46 37 3 18 -1 22 -25 22 -15 -1 -46 -7 -68 -15z"/>
<path d="M3730 1361 c-41 -49 -76 -94 -78 -100 -5 -14 64 -15 73 -1 3 6 23 10
44 10 29 0 40 -5 43 -18 4 -12 16 -18 40 -20 l36 -2 -5 102 c-3 59 -10 106
-17 110 -6 4 -22 8 -36 8 -19 0 -42 -21 -100 -89z m80 -26 c0 -8 -7 -15 -16
-15 -14 0 -14 3 -4 15 7 8 14 15 16 15 2 0 4 -7 4 -15z"/>
<path d="M2360 1423 c-52 -10 -91 -74 -69 -115 7 -13 22 -18 50 -18 56 0 46
-24 -12 -28 -45 -3 -59 -14 -59 -45 0 -16 6 -17 63 -11 78 8 95 17 112 58 24
57 -3 95 -60 84 -10 -2 -20 2 -22 8 -2 7 14 13 42 16 52 6 50 5 59 36 7 21 5
22 -36 21 -24 -1 -54 -4 -68 -6z"/>
<path d="M2501 1343 c-12 -49 -24 -96 -27 -105 -5 -16 4 -18 84 -18 88 0 90 1
94 25 5 24 3 25 -43 25 -37 0 -49 4 -49 15 0 10 10 15 34 15 22 0 36 6 40 16
11 28 7 34 -24 34 -20 0 -30 5 -30 15 0 11 13 15 54 15 49 0 54 2 58 25 l5 25
-87 0 -88 0 -21 -87z"/>
<path d="M2909 1327 l-66 -102 35 -3 c24 -2 38 2 44 12 12 21 77 22 84 1 7
-17 74 -21 74 -4 0 14 -19 148 -26 177 -4 18 -11 22 -42 22 -36 0 -39 -3 -103
-103z m81 -12 c0 -8 -4 -15 -10 -15 -5 0 -7 7 -4 15 4 8 8 15 10 15 2 0 4 -7
4 -15z"/>
<path d="M3946 1324 c-26 -52 -47 -96 -45 -98 2 -2 18 -6 35 -9 29 -6 33 -3
49 34 21 45 26 43 40 -14 9 -36 14 -42 43 -48 32 -6 33 -6 77 75 60 111 60
112 33 120 -40 10 -48 7 -65 -29 -9 -19 -20 -35 -24 -35 -4 0 -10 20 -13 44
-6 39 -10 44 -38 50 -17 3 -33 6 -37 6 -3 0 -28 -43 -55 -96z"/>
<path d="M2199 1403 c-12 -3 -18 -22 -23 -80 -6 -79 -15 -95 -51 -91 -18 3
-20 9 -16 79 l3 77 -33 -7 -34 -7 -8 -79 c-11 -108 -6 -125 38 -125 65 0 135
21 151 45 9 13 17 59 21 109 6 92 6 94 -48 79z"/>
<path d="M1888 1343 c-10 -3 -32 -46 -60 -121 -28 -76 -44 -109 -46 -94 -3 16
-9 21 -20 18 -65 -19 -71 -19 -78 8 -14 55 2 75 79 100 10 3 17 15 17 31 0 25
-2 26 -32 20 -102 -22 -138 -60 -138 -147 0 -54 22 -88 58 -88 44 0 176 42
192 61 20 23 66 34 84 20 16 -14 79 -3 73 13 -75 201 -71 195 -129 179z m22
-118 c0 -8 -4 -15 -10 -15 -5 0 -7 7 -4 15 4 8 8 15 10 15 2 0 4 -7 4 -15z"/>
<path d="M4238 1335 c-33 -19 -78 -92 -78 -128 0 -30 26 -47 99 -67 54 -14 95
0 116 41 27 52 18 65 -59 85 -17 4 -25 -1 -33 -19 -11 -23 -9 -26 14 -32 38
-9 13 -29 -26 -20 -37 8 -40 30 -10 69 22 28 48 32 99 14 29 -9 35 -9 47 7 20
28 17 33 -24 45 -69 19 -117 21 -145 5z"/>
<path d="M4425 1208 c-31 -49 -54 -92 -52 -94 2 -3 40 -16 82 -29 73 -22 79
-23 91 -7 20 25 17 29 -23 42 -21 7 -42 16 -47 21 -17 15 2 22 33 11 27 -10
33 -8 46 11 15 21 14 23 -16 35 -49 20 -22 34 34 17 44 -13 47 -13 57 6 14 25
7 35 -27 42 -16 4 -49 13 -75 21 l-47 15 -56 -91z"/>
<path d="M3620 855 c0 -5 5 -17 10 -25 5 -8 10 -10 10 -5 0 6 -5 17 -10 25 -5
8 -10 11 -10 5z"/>
<path d="M2085 920 c3 -5 10 -10 16 -10 5 0 9 5 9 10 0 6 -7 10 -16 10 -8 0
-12 -4 -9 -10z"/>
<path d="M4104 924 c-18 -14 -18 -15 6 -8 31 8 50 24 29 24 -8 0 -24 -7 -35
-16z"/>
<path d="M5033 3908 c-18 -5 -35 -13 -39 -20 -5 -8 0 -9 17 -5 13 4 39 7 57 7
17 0 32 4 32 9 0 14 -32 18 -67 9z"/>
</g>
</svg>
