<?xml version="1.0" standalone="no"?>
<!DOCTYPE svg PUBLIC "-//W3C//DTD SVG 20010904//EN"
 "http://www.w3.org/TR/2001/REC-SVG-20010904/DTD/svg10.dtd">
<svg version="1.0" xmlns="http://www.w3.org/2000/svg"
 width="3984.000000pt" height="1907.000000pt" viewBox="0 0 3984.000000 1907.000000"
 preserveAspectRatio="xMidYMid meet">

<g transform="translate(0.000000,1907.000000) scale(0.100000,-0.100000)"
fill="#000000" stroke="none">
<path d="M39345 19060 c-16 -5 -219 -45 -450 -90 -772 -149 -1040 -201 -1057
-206 -17 -5 -18 -58 -18 -935 0 -816 2 -930 15 -935 24 -9 341 31 409 53 19 5
19 -48 12 -3303 -4 -1820 -11 -3412 -16 -3538 -8 -212 -19 -283 -33 -224 -13
52 -50 329 -102 773 -63 529 -147 1226 -235 1945 -33 267 -78 640 -100 830
-48 418 -567 4619 -611 4949 -17 129 -33 240 -36 247 -6 17 47 25 -886 -131
-433 -73 -793 -137 -799 -143 -15 -15 -25 -801 -18 -1342 6 -434 9 -458 53
-446 24 7 258 40 350 50 l57 6 0 -7053 0 -7053 -102 13 c-81 10 -264 39 -351
56 -9 1 -12 -239 -12 -963 l0 -964 345 -52 c190 -29 548 -87 795 -129 248 -43
547 -92 666 -111 118 -18 237 -38 264 -44 29 -7 52 -7 57 -2 20 20 27 302 28
1119 l0 851 -27 6 c-16 3 -80 12 -143 21 -155 21 -341 53 -349 61 -8 8 -1
7760 8 7844 6 62 7 57 34 -140 84 -626 110 -832 152 -1190 25 -217 111 -935
191 -1595 80 -660 210 -1747 290 -2415 170 -1427 230 -1931 284 -2360 57 -458
125 -1041 160 -1380 36 -349 73 -648 100 -818 11 -67 20 -124 20 -127 0 -9
192 -53 605 -137 221 -45 268 -51 408 -55 l157 -5 0 863 c2 4674 20 16228 25
16241 9 24 68 44 196 68 63 11 124 23 137 26 l22 4 0 769 0 768 -49 64 c-56
73 -163 179 -235 233 -45 33 -54 36 -115 35 -36 0 -79 -5 -96 -9z"/>
<path d="M1065 18985 c-503 -89 -859 -504 -1031 -1199 l-34 -140 0 -8140 0
-8141 35 -148 c134 -574 379 -981 710 -1181 l60 -36 457 0 456 0 68 36 c137
73 251 158 440 330 56 51 111 97 123 103 24 13 25 11 36 -51 15 -94 65 -93
745 17 184 30 345 57 358 60 l22 5 -2 5087 -3 5087 -30 8 c-43 12 -398 26
-950 37 -264 6 -551 13 -637 17 l-158 6 0 -956 0 -956 249 0 249 0 -4 -157
c-2 -87 -6 -1398 -9 -2913 -5 -2661 -11 -3278 -35 -3424 -22 -138 -106 -243
-253 -314 -111 -54 -212 -75 -335 -70 -121 5 -182 30 -247 99 -78 83 -82 100
-89 374 -26 969 -39 11337 -16 13380 11 1019 9 994 66 1077 65 93 160 131 329
132 148 1 230 -21 333 -92 112 -76 179 -166 216 -292 24 -78 35 -606 44 -1950
l7 -1094 35 -8 c69 -14 211 -28 640 -63 239 -19 471 -40 515 -45 44 -6 81 -10
82 -10 2 0 3 1136 3 2525 0 1389 -3 2525 -8 2525 -4 0 -185 34 -402 75 -547
105 -664 125 -673 115 -5 -4 -11 -27 -14 -51 -3 -24 -10 -52 -15 -61 -18 -36
-34 -28 -248 122 -163 115 -395 213 -612 261 -123 27 -362 34 -473 14z"/>
<path d="M4070 17525 c0 -498 3 -905 8 -905 4 0 39 -7 77 -15 39 -8 147 -24
240 -35 94 -11 185 -22 203 -25 l32 -6 0 -6974 c0 -3836 -3 -6975 -8 -6975
-19 0 -406 -51 -472 -63 l-75 -13 -3 -967 -2 -967 22 5 c252 55 609 116 908
155 129 17 485 66 790 110 305 44 670 95 810 115 554 77 757 137 950 278 139
102 233 203 335 360 207 318 339 816 375 1407 19 310 30 2636 20 4060 -12
1600 -17 1734 -86 2078 -64 324 -155 509 -364 740 l-102 112 121 126 c151 157
203 226 257 339 87 183 130 411 144 770 19 474 30 2373 20 3520 -11 1227 -20
1535 -51 1700 -48 259 -143 585 -210 716 -75 150 -226 345 -385 500 -247 238
-398 294 -1034 384 -140 20 -383 54 -540 76 -518 73 -1753 259 -1854 279 -54
11 -105 20 -112 20 -12 0 -14 -148 -14 -905z m2295 -1190 c404 -49 482 -64
546 -108 73 -49 85 -108 99 -487 16 -398 26 -4367 12 -4535 -15 -166 -39 -240
-98 -299 -68 -69 -84 -71 -564 -71 l-415 0 2 2585 c1 2423 6 2884 29 2944 6
15 14 17 53 12 25 -4 177 -22 336 -41z m317 -7355 c140 -14 222 -62 265 -156
66 -146 73 -419 73 -3074 0 -2127 -6 -2615 -31 -2714 -22 -89 -118 -167 -244
-200 -78 -20 -261 -43 -455 -56 -85 -6 -188 -16 -228 -21 -41 -6 -77 -8 -80
-4 -18 18 -23 227 -31 1340 -11 1423 -14 4879 -4 4888 10 11 625 8 735 -3z"/>
<path d="M33425 18073 c-16 -2 -214 -28 -440 -58 -387 -51 -830 -105 -993
-121 -63 -6 -73 -9 -77 -28 -19 -90 -47 -424 -160 -1925 -106 -1408 -215
-2824 -305 -3961 -33 -415 -73 -935 -90 -1155 -17 -220 -82 -1052 -145 -1850
-133 -1691 -158 -2008 -185 -2400 -11 -159 -47 -607 -80 -995 -73 -864 -95
-1140 -115 -1475 -9 -143 -31 -438 -50 -655 -19 -217 -35 -397 -35 -400 0 -3
-60 2 -132 12 -73 9 -150 17 -170 17 l-38 1 0 -885 c0 -487 3 -885 8 -885 74
0 485 -47 1107 -125 397 -50 685 -80 828 -87 l57 -3 0 897 0 897 -42 12 c-24
6 -101 17 -172 23 -147 14 -160 21 -172 104 -8 55 0 241 21 477 40 453 86
1020 105 1300 19 286 43 521 54 532 2 3 73 -2 158 -11 133 -14 402 -33 703
-51 50 -3 120 -8 156 -11 l66 -6 6 -181 c6 -168 52 -788 112 -1492 13 -159 31
-393 40 -520 13 -204 13 -231 0 -244 -12 -12 -47 -16 -150 -19 l-135 -4 0
-402 c1 -483 17 -1373 26 -1402 7 -28 9 -28 339 -64 350 -39 504 -60 937 -125
362 -55 659 -95 710 -95 l28 0 0 949 0 949 -157 4 c-246 8 -244 5 -254 257
-11 261 -53 821 -114 1501 -29 326 -60 722 -75 945 -20 310 -61 837 -115 1480
-30 358 -66 821 -80 1030 -14 209 -43 594 -66 855 -22 261 -48 579 -59 705
-11 127 -35 453 -55 725 -35 492 -62 833 -110 1380 -31 365 -70 869 -90 1175
-15 225 -83 1069 -105 1290 -20 210 -61 717 -90 1130 -17 237 -46 610 -66 830
-53 607 -71 839 -104 1335 -29 438 -55 760 -65 808 -5 20 -10 22 -73 21 -37
-1 -80 -4 -97 -6z m-701 -6020 c3 -27 24 -271 46 -543 23 -272 85 -1026 140
-1675 155 -1847 190 -2314 190 -2575 l0 -165 -152 3 c-230 4 -561 20 -582 28
-18 7 -19 17 -13 198 3 105 31 486 61 846 49 579 70 854 131 1730 9 118 38
485 65 815 61 745 77 971 86 1203 7 181 16 225 28 135z"/>
<path d="M10475 17724 c-234 -32 -470 -122 -674 -258 -317 -211 -521 -516
-685 -1023 l-36 -113 0 -6813 0 -6812 51 -164 c86 -280 163 -446 287 -621 82
-115 249 -285 359 -363 194 -138 418 -228 613 -247 189 -19 623 2 755 36 151
39 390 150 553 257 264 173 569 493 690 725 91 175 180 428 223 637 20 99 20
136 31 3325 13 4012 -2 9691 -26 9850 -50 321 -184 621 -394 881 -85 106 -271
282 -377 357 -230 163 -577 286 -935 332 -90 11 -385 21 -435 14z m464 -1684
c45 -6 101 -18 124 -27 65 -26 146 -84 215 -156 l62 -65 -1 -5949 c-1 -3271
-4 -6092 -7 -6269 l-7 -321 -30 -39 c-123 -161 -288 -231 -523 -222 -104 4
-125 8 -192 37 -116 50 -127 66 -149 221 -46 320 -54 1460 -48 7100 5 4696 10
5348 36 5484 7 38 19 59 57 97 102 103 242 136 463 109z"/>
<path d="M28305 17513 c-194 -15 -329 -27 -500 -43 -308 -30 -415 -37 -905
-65 -250 -14 -513 -29 -584 -35 -72 -5 -143 -10 -158 -10 l-28 0 0 -810 0
-810 24 0 c32 0 385 28 454 35 l52 6 0 -6226 0 -6226 -42 5 c-45 6 -224 20
-392 32 l-99 7 7 -779 c5 -745 11 -899 35 -913 5 -4 194 -21 418 -39 224 -18
620 -51 878 -72 259 -22 565 -46 680 -55 705 -52 969 -75 1525 -135 201 -22
386 -42 411 -45 l47 -5 6 72 c48 540 42 5675 -7 5724 -6 6 -393 20 -809 29
l-308 7 0 -1997 0 -1996 -42 5 c-52 7 -442 39 -748 62 -124 9 -226 17 -227 18
-1 1 -5 2837 -9 6302 l-7 6300 94 14 c52 7 177 16 279 19 l185 6 3 813 2 812
-97 -2 c-54 -1 -116 -3 -138 -5z"/>
<path d="M12910 16602 l0 -791 53 -10 c28 -6 95 -18 147 -27 52 -9 96 -18 97
-19 5 -3 97 -452 193 -945 226 -1156 296 -1508 395 -1990 57 -278 112 -561
124 -630 11 -69 29 -183 41 -254 11 -70 67 -349 124 -620 120 -565 171 -820
221 -1101 51 -284 130 -683 251 -1258 l104 -498 0 -2528 0 -2528 -87 -12
c-126 -16 -316 -31 -400 -31 l-73 0 0 -692 c1 -644 8 -928 25 -970 6 -14 19
-18 59 -18 67 -1 2281 120 2324 126 l32 5 0 824 0 825 -281 0 -280 0 4 2528
c3 1835 7 2568 16 2677 12 145 139 934 236 1460 58 311 116 638 159 895 18
113 97 558 175 990 234 1307 328 1843 370 2100 23 135 65 373 95 530 62 322
69 364 127 725 23 143 46 264 50 269 5 6 63 2 149 -9 77 -10 142 -16 144 -14
6 6 -11 1570 -17 1576 -3 2 -270 11 -594 18 -966 23 -1315 37 -1438 58 -7 1
-11 -256 -13 -789 l-2 -791 193 -6 c229 -7 247 -12 247 -64 0 -55 -86 -580
-185 -1128 -19 -104 -86 -494 -150 -865 -106 -619 -139 -801 -236 -1324 -21
-115 -36 -172 -41 -160 -11 30 -285 1391 -383 1909 -20 105 -65 327 -101 494
-36 167 -76 374 -89 460 -27 177 -58 328 -109 547 -20 84 -36 154 -36 158 0 3
104 6 230 6 l230 0 0 779 0 779 -22 6 c-36 9 -342 34 -698 56 -699 43 -854 51
-1112 57 l-268 6 0 -791z"/>
<path d="M25585 17329 c-49 -5 -256 -20 -460 -34 -203 -14 -394 -30 -423 -36
-59 -12 -72 -27 -72 -88 0 -49 -10 -51 -78 -17 -70 35 -326 121 -416 140 -351
72 -781 15 -1122 -148 -152 -73 -253 -143 -359 -250 -178 -179 -322 -441 -399
-726 -48 -178 -57 -249 -66 -495 -19 -522 -30 -5723 -20 -8875 6 -1702 15
-3239 19 -3415 8 -310 10 -324 39 -435 36 -138 116 -329 195 -463 249 -421
615 -708 1048 -821 336 -87 647 -97 949 -29 209 46 361 116 570 261 310 216
531 547 702 1052 l49 145 9 2055 c5 1130 9 2252 10 2493 l0 437 -653 0 -654 0
-7 -2112 c-7 -2042 -13 -2448 -37 -2533 -13 -46 -70 -105 -130 -136 -110 -56
-295 -74 -441 -44 -152 32 -297 126 -319 207 -31 116 -32 322 -36 6161 l-4
5868 58 65 c108 122 187 154 383 154 144 0 277 -14 329 -36 20 -8 72 -52 119
-101 l82 -87 0 -1289 0 -1288 398 6 c521 8 862 21 874 33 23 23 29 416 35
2345 l6 2047 -44 -1 c-24 -1 -84 -5 -134 -10z"/>
<path d="M18990 17220 c-159 -16 -268 -49 -443 -136 -213 -106 -362 -233 -480
-410 -144 -216 -254 -523 -292 -810 -25 -189 -37 -730 -38 -1724 -2 -989 2
-1142 44 -1514 41 -365 105 -622 244 -966 82 -204 367 -837 622 -1385 113
-242 273 -591 355 -775 227 -506 469 -1040 628 -1380 225 -482 282 -617 377
-895 101 -298 102 -301 114 -710 6 -234 8 -817 3 -1662 l-7 -1303 -77 -74
c-130 -124 -253 -169 -460 -170 -213 0 -348 50 -470 176 l-70 72 0 1828 0
1828 -655 0 -655 0 0 -2691 0 -2692 98 6 c53 4 295 12 537 18 480 13 485 13
485 68 0 89 18 86 255 -50 145 -83 264 -133 382 -160 167 -39 678 -36 828 5
120 32 324 131 475 231 261 172 444 483 559 950 68 278 77 547 87 2460 8 1688
0 1923 -77 2234 -71 287 -212 630 -608 1484 -89 191 -174 380 -190 420 -47
118 -411 924 -611 1352 -56 121 -135 294 -175 385 -40 91 -172 386 -293 655
-264 588 -254 565 -358 844 l-84 223 0 327 c0 179 3 741 7 1249 l6 924 62 64
c128 131 345 185 567 139 80 -17 209 -74 246 -108 101 -93 112 -257 112 -1679
l0 -978 640 0 640 0 0 2143 0 2143 -332 -4 c-405 -3 -698 -16 -726 -31 -14 -7
-24 -28 -32 -66 -6 -30 -14 -55 -16 -55 -3 0 -80 34 -171 76 -91 42 -200 84
-242 95 -125 32 -602 49 -811 29z"/>
</g>
</svg>
